<mxfile host="65bd71144e" scale="5" border="0">
    <diagram id="NW8A4pM0LYcO6XhlyZsR" name="Main">
        <mxGraphModel dx="1216" dy="795" grid="1" gridSize="10" guides="1" tooltips="1" connect="1" arrows="1" fold="1" page="1" pageScale="1" pageWidth="850" pageHeight="1100" math="0" shadow="0">
            <root>
                <mxCell id="0"/>
                <mxCell id="1" parent="0"/>
                <mxCell id="2" value="&lt;i&gt;&lt;span style=&quot;white-space: pre;&quot;&gt;&#9;&lt;/span&gt;Scheduler&lt;/i&gt;" style="rounded=0;whiteSpace=wrap;html=1;dashed=1;verticalAlign=top;align=left;fontFamily=CMU;fontSource=https%3A%2F%2Ffontlibrary.org%2F%2Fface%2Fcmu-serif;" parent="1" vertex="1">
                    <mxGeometry x="45" y="40" width="760" height="360" as="geometry"/>
                </mxCell>
                <mxCell id="3" value="&lt;i&gt;&lt;font data-font-src=&quot;https://fontlibrary.org//face/cmu-serif&quot; face=&quot;CMU&quot;&gt;&lt;span style=&quot;white-space: pre;&quot;&gt;&#9;&lt;/span&gt;Data Collector&lt;/font&gt;&lt;/i&gt;" style="rounded=0;whiteSpace=wrap;html=1;dashed=1;verticalAlign=top;align=left;" parent="1" vertex="1">
                    <mxGeometry x="45" y="420" width="760" height="660" as="geometry"/>
                </mxCell>
                <mxCell id="23" style="edgeStyle=none;html=1;exitX=0.5;exitY=1;exitDx=0;exitDy=0;fontFamily=CMU;fontSource=https%3A%2F%2Ffontlibrary.org%2F%2Fface%2Fcmu-serif;fontColor=#000000;" parent="1" source="14" target="17" edge="1">
                    <mxGeometry relative="1" as="geometry"/>
                </mxCell>
                <mxCell id="14" value="&lt;font color=&quot;#000000&quot;&gt;Start Instance of Schedule&lt;/font&gt;" style="rounded=1;whiteSpace=wrap;html=1;fontColor=#FF3333;fontFamily=CMU;fontSource=https%3A%2F%2Ffontlibrary.org%2F%2Fface%2Fcmu-serif;" parent="1" vertex="1">
                    <mxGeometry x="345" y="113" width="160" height="60" as="geometry"/>
                </mxCell>
                <mxCell id="15" value="&lt;font data-font-src=&quot;https://fontlibrary.org//face/cmu-serif&quot; face=&quot;CMU&quot;&gt;&lt;b&gt;START&lt;/b&gt;&lt;/font&gt;" style="text;html=1;strokeColor=none;fillColor=none;align=center;verticalAlign=middle;whiteSpace=wrap;rounded=0;fontColor=#000000;" parent="1" vertex="1">
                    <mxGeometry x="390" y="90" width="60" height="30" as="geometry"/>
                </mxCell>
                <mxCell id="24" value="&lt;i&gt;True&lt;/i&gt;" style="edgeStyle=none;html=1;exitX=0;exitY=0.5;exitDx=0;exitDy=0;entryX=1;entryY=0.5;entryDx=0;entryDy=0;fontFamily=CMU;fontSource=https%3A%2F%2Ffontlibrary.org%2F%2Fface%2Fcmu-serif;fontColor=#000000;" parent="1" source="17" target="22" edge="1">
                    <mxGeometry relative="1" as="geometry"/>
                </mxCell>
                <mxCell id="25" value="&lt;i&gt;False&lt;/i&gt;" style="edgeStyle=none;html=1;exitX=1;exitY=0.5;exitDx=0;exitDy=0;entryX=1.013;entryY=0.383;entryDx=0;entryDy=0;entryPerimeter=0;fontFamily=CMU;fontSource=https%3A%2F%2Ffontlibrary.org%2F%2Fface%2Fcmu-serif;fontColor=#000000;" parent="1" source="17" target="14" edge="1">
                    <mxGeometry relative="1" as="geometry">
                        <Array as="points">
                            <mxPoint x="600" y="285"/>
                            <mxPoint x="600" y="136"/>
                        </Array>
                    </mxGeometry>
                </mxCell>
                <mxCell id="28" value="&lt;i&gt;True&lt;/i&gt;" style="edgeStyle=none;html=1;exitX=0.5;exitY=1;exitDx=0;exitDy=0;entryX=0.5;entryY=0;entryDx=0;entryDy=0;fontFamily=CMU;fontSource=https%3A%2F%2Ffontlibrary.org%2F%2Fface%2Fcmu-serif;fontColor=#000000;" parent="1" source="17" target="26" edge="1">
                    <mxGeometry relative="1" as="geometry"/>
                </mxCell>
                <mxCell id="17" value="Current Date and Time&lt;br&gt;==&lt;br&gt;Schedule System Start" style="rhombus;whiteSpace=wrap;html=1;fontFamily=CMU;fontSource=https%3A%2F%2Ffontlibrary.org%2F%2Fface%2Fcmu-serif;fontColor=#000000;" parent="1" vertex="1">
                    <mxGeometry x="345" y="200" width="160" height="170" as="geometry"/>
                </mxCell>
                <mxCell id="22" value="&lt;font color=&quot;#000000&quot;&gt;Log &amp;amp; Alert &lt;br&gt;Successful Message&lt;/font&gt;" style="rounded=1;whiteSpace=wrap;html=1;fontColor=#FF3333;fontFamily=CMU;fontSource=https%3A%2F%2Ffontlibrary.org%2F%2Fface%2Fcmu-serif;" parent="1" vertex="1">
                    <mxGeometry x="75" y="255" width="160" height="60" as="geometry"/>
                </mxCell>
                <mxCell id="32" style="edgeStyle=none;html=1;exitX=0.5;exitY=1;exitDx=0;exitDy=0;entryX=0.5;entryY=0;entryDx=0;entryDy=0;fontFamily=CMU;fontSource=https%3A%2F%2Ffontlibrary.org%2F%2Fface%2Fcmu-serif;fontColor=#000000;" parent="1" source="26" target="27" edge="1">
                    <mxGeometry relative="1" as="geometry"/>
                </mxCell>
                <mxCell id="26" value="&lt;font color=&quot;#000000&quot;&gt;Retrieve API Key&lt;/font&gt;" style="rounded=1;whiteSpace=wrap;html=1;fontColor=#FF3333;fontFamily=CMU;fontSource=https%3A%2F%2Ffontlibrary.org%2F%2Fface%2Fcmu-serif;" parent="1" vertex="1">
                    <mxGeometry x="345" y="455" width="160" height="60" as="geometry"/>
                </mxCell>
                <mxCell id="31" value="&lt;i&gt;False&lt;/i&gt;" style="edgeStyle=none;html=1;exitX=1;exitY=0.5;exitDx=0;exitDy=0;fontFamily=CMU;fontSource=https%3A%2F%2Ffontlibrary.org%2F%2Fface%2Fcmu-serif;fontColor=#000000;" parent="1" source="27" target="30" edge="1">
                    <mxGeometry relative="1" as="geometry"/>
                </mxCell>
                <mxCell id="37" value="&lt;i&gt;True&lt;/i&gt;" style="edgeStyle=none;html=1;exitX=0;exitY=0.5;exitDx=0;exitDy=0;entryX=1;entryY=0.5;entryDx=0;entryDy=0;fontFamily=CMU;fontSource=https%3A%2F%2Ffontlibrary.org%2F%2Fface%2Fcmu-serif;fontColor=#000000;" parent="1" source="27" target="34" edge="1">
                    <mxGeometry relative="1" as="geometry"/>
                </mxCell>
                <mxCell id="39" style="edgeStyle=none;html=1;exitX=0.5;exitY=1;exitDx=0;exitDy=0;entryX=0.5;entryY=0;entryDx=0;entryDy=0;fontFamily=CMU;fontSource=https%3A%2F%2Ffontlibrary.org%2F%2Fface%2Fcmu-serif;fontColor=#000000;" parent="1" source="27" target="38" edge="1">
                    <mxGeometry relative="1" as="geometry"/>
                </mxCell>
                <mxCell id="27" value="API Key&lt;br&gt;Retrieved?" style="rhombus;whiteSpace=wrap;html=1;fontFamily=CMU;fontSource=https%3A%2F%2Ffontlibrary.org%2F%2Fface%2Fcmu-serif;fontColor=#000000;" parent="1" vertex="1">
                    <mxGeometry x="355" y="550" width="140" height="150" as="geometry"/>
                </mxCell>
                <mxCell id="36" style="edgeStyle=none;html=1;exitX=0.5;exitY=1;exitDx=0;exitDy=0;fontFamily=CMU;fontSource=https%3A%2F%2Ffontlibrary.org%2F%2Fface%2Fcmu-serif;fontColor=#000000;" parent="1" source="30" target="35" edge="1">
                    <mxGeometry relative="1" as="geometry"/>
                </mxCell>
                <mxCell id="30" value="&lt;font color=&quot;#000000&quot;&gt;Log &amp;amp; Alert &lt;br&gt;Error Message&lt;/font&gt;" style="rounded=1;whiteSpace=wrap;html=1;fontColor=#FF3333;fontFamily=CMU;fontSource=https%3A%2F%2Ffontlibrary.org%2F%2Fface%2Fcmu-serif;" parent="1" vertex="1">
                    <mxGeometry x="610" y="595" width="160" height="60" as="geometry"/>
                </mxCell>
                <mxCell id="34" value="&lt;font color=&quot;#000000&quot;&gt;Log &amp;amp; Alert &lt;br&gt;Successful Message&lt;/font&gt;" style="rounded=1;whiteSpace=wrap;html=1;fontColor=#FF3333;fontFamily=CMU;fontSource=https%3A%2F%2Ffontlibrary.org%2F%2Fface%2Fcmu-serif;" parent="1" vertex="1">
                    <mxGeometry x="85" y="595" width="160" height="60" as="geometry"/>
                </mxCell>
                <mxCell id="35" value="&lt;font color=&quot;#000000&quot;&gt;EXIT : 1&lt;/font&gt;" style="rounded=1;whiteSpace=wrap;html=1;fontFamily=CMU;fontSource=https%3A%2F%2Ffontlibrary.org%2F%2Fface%2Fcmu-serif;fillColor=#f8cecc;strokeColor=#b85450;" parent="1" vertex="1">
                    <mxGeometry x="650" y="690" width="80" height="30" as="geometry"/>
                </mxCell>
                <mxCell id="41" style="edgeStyle=none;html=1;exitX=0.5;exitY=1;exitDx=0;exitDy=0;entryX=0.5;entryY=0;entryDx=0;entryDy=0;fontFamily=CMU;fontSource=https%3A%2F%2Ffontlibrary.org%2F%2Fface%2Fcmu-serif;fontColor=#000000;" parent="1" source="38" target="40" edge="1">
                    <mxGeometry relative="1" as="geometry"/>
                </mxCell>
                <mxCell id="38" value="&lt;font color=&quot;#000000&quot;&gt;Collect End-of-Day Historical Market Price Data&lt;/font&gt;" style="rounded=1;whiteSpace=wrap;html=1;fontColor=#FF3333;fontFamily=CMU;fontSource=https%3A%2F%2Ffontlibrary.org%2F%2Fface%2Fcmu-serif;" parent="1" vertex="1">
                    <mxGeometry x="345" y="770" width="160" height="60" as="geometry"/>
                </mxCell>
                <mxCell id="44" value="&lt;i&gt;True&lt;/i&gt;" style="edgeStyle=none;html=1;exitX=0;exitY=0.5;exitDx=0;exitDy=0;entryX=1;entryY=0.5;entryDx=0;entryDy=0;fontFamily=CMU;fontSource=https%3A%2F%2Ffontlibrary.org%2F%2Fface%2Fcmu-serif;fontColor=#000000;" parent="1" source="40" target="43" edge="1">
                    <mxGeometry relative="1" as="geometry"/>
                </mxCell>
                <mxCell id="47" value="&lt;i&gt;False&lt;/i&gt;" style="edgeStyle=none;html=1;exitX=1;exitY=0.5;exitDx=0;exitDy=0;entryX=0;entryY=0.5;entryDx=0;entryDy=0;fontFamily=CMU;fontSource=https%3A%2F%2Ffontlibrary.org%2F%2Fface%2Fcmu-serif;fontColor=#000000;" parent="1" source="40" target="46" edge="1">
                    <mxGeometry relative="1" as="geometry">
                        <Array as="points">
                            <mxPoint x="560" y="940"/>
                            <mxPoint x="560" y="1020"/>
                        </Array>
                    </mxGeometry>
                </mxCell>
                <mxCell id="51" style="edgeStyle=none;html=1;exitX=1;exitY=0.5;exitDx=0;exitDy=0;entryX=0;entryY=0.5;entryDx=0;entryDy=0;fontFamily=CMU;fontSource=https%3A%2F%2Ffontlibrary.org%2F%2Fface%2Fcmu-serif;fontColor=#000000;rounded=1;" parent="1" source="40" target="50" edge="1">
                    <mxGeometry relative="1" as="geometry">
                        <Array as="points">
                            <mxPoint x="560" y="940"/>
                            <mxPoint x="560" y="930"/>
                            <mxPoint x="560" y="920"/>
                        </Array>
                    </mxGeometry>
                </mxCell>
                <mxCell id="40" value="Market Data Collected Successfully?" style="rhombus;whiteSpace=wrap;html=1;fontFamily=CMU;fontSource=https%3A%2F%2Ffontlibrary.org%2F%2Fface%2Fcmu-serif;fontColor=#000000;" parent="1" vertex="1">
                    <mxGeometry x="348" y="860" width="155" height="160" as="geometry"/>
                </mxCell>
                <mxCell id="43" value="&lt;font color=&quot;#000000&quot;&gt;Log &amp;amp; Alert &lt;br&gt;Successful Message&lt;/font&gt;" style="rounded=1;whiteSpace=wrap;html=1;fontColor=#FF3333;fontFamily=CMU;fontSource=https%3A%2F%2Ffontlibrary.org%2F%2Fface%2Fcmu-serif;" parent="1" vertex="1">
                    <mxGeometry x="85" y="910" width="160" height="60" as="geometry"/>
                </mxCell>
                <mxCell id="46" value="&lt;font color=&quot;#000000&quot;&gt;Log &amp;amp; Alert &lt;br&gt;Error Message&lt;/font&gt;" style="rounded=1;whiteSpace=wrap;html=1;fontColor=#FF3333;fontFamily=CMU;fontSource=https%3A%2F%2Ffontlibrary.org%2F%2Fface%2Fcmu-serif;" parent="1" vertex="1">
                    <mxGeometry x="610" y="990" width="160" height="60" as="geometry"/>
                </mxCell>
                <mxCell id="53" style="edgeStyle=none;rounded=1;html=1;exitX=0.5;exitY=0;exitDx=0;exitDy=0;entryX=0.5;entryY=1;entryDx=0;entryDy=0;fontFamily=CMU;fontSource=https%3A%2F%2Ffontlibrary.org%2F%2Fface%2Fcmu-serif;fontColor=#000000;" parent="1" source="50" target="52" edge="1">
                    <mxGeometry relative="1" as="geometry">
                        <Array as="points">
                            <mxPoint x="690" y="870"/>
                            <mxPoint x="650" y="880"/>
                        </Array>
                    </mxGeometry>
                </mxCell>
                <mxCell id="50" value="&lt;font color=&quot;#000000&quot;&gt;Increment Number of Retries&lt;br&gt;(n)&lt;/font&gt;" style="rounded=1;whiteSpace=wrap;html=1;fontColor=#FF3333;fontFamily=CMU;fontSource=https%3A%2F%2Ffontlibrary.org%2F%2Fface%2Fcmu-serif;" parent="1" vertex="1">
                    <mxGeometry x="610" y="890" width="160" height="60" as="geometry"/>
                </mxCell>
                <mxCell id="54" value="&lt;i&gt;True&lt;/i&gt;" style="edgeStyle=none;rounded=1;html=1;exitX=0;exitY=0.5;exitDx=0;exitDy=0;entryX=1;entryY=0.5;entryDx=0;entryDy=0;fontFamily=CMU;fontSource=https%3A%2F%2Ffontlibrary.org%2F%2Fface%2Fcmu-serif;fontColor=#000000;" parent="1" source="52" target="38" edge="1">
                    <mxGeometry x="-0.1724" relative="1" as="geometry">
                        <Array as="points">
                            <mxPoint x="570" y="830"/>
                            <mxPoint x="570" y="800"/>
                        </Array>
                        <mxPoint as="offset"/>
                    </mxGeometry>
                </mxCell>
                <mxCell id="57" value="&lt;i&gt;False&lt;/i&gt;" style="edgeStyle=none;rounded=1;html=1;exitX=1;exitY=0.5;exitDx=0;exitDy=0;entryX=1;entryY=0.5;entryDx=0;entryDy=0;fontFamily=CMU;fontSource=https%3A%2F%2Ffontlibrary.org%2F%2Fface%2Fcmu-serif;fontColor=#000000;" parent="1" source="52" target="56" edge="1">
                    <mxGeometry x="0.2903" relative="1" as="geometry">
                        <Array as="points">
                            <mxPoint x="750" y="830"/>
                            <mxPoint x="750" y="765"/>
                        </Array>
                        <mxPoint as="offset"/>
                    </mxGeometry>
                </mxCell>
                <mxCell id="52" value="n &amp;gt; 5" style="rhombus;whiteSpace=wrap;html=1;fontFamily=CMU;fontSource=https%3A%2F%2Ffontlibrary.org%2F%2Fface%2Fcmu-serif;fontColor=#000000;" parent="1" vertex="1">
                    <mxGeometry x="620" y="800" width="60" height="60" as="geometry"/>
                </mxCell>
                <mxCell id="56" value="&lt;font color=&quot;#000000&quot;&gt;EXIT : 1&lt;/font&gt;" style="rounded=1;whiteSpace=wrap;html=1;fontFamily=CMU;fontSource=https%3A%2F%2Ffontlibrary.org%2F%2Fface%2Fcmu-serif;fillColor=#f8cecc;strokeColor=#b85450;" parent="1" vertex="1">
                    <mxGeometry x="650" y="750" width="80" height="30" as="geometry"/>
                </mxCell>
                <mxCell id="59" value="&lt;i&gt;&lt;font data-font-src=&quot;https://fontlibrary.org//face/cmu-serif&quot; face=&quot;CMU&quot;&gt;&lt;span style=&quot;white-space: pre;&quot;&gt;&#9;&lt;/span&gt;Data Processor&lt;/font&gt;&lt;/i&gt;" style="rounded=0;whiteSpace=wrap;html=1;dashed=1;verticalAlign=top;align=left;" parent="1" vertex="1">
                    <mxGeometry x="45.5" y="1100" width="760" height="1380" as="geometry"/>
                </mxCell>
                <mxCell id="60" value="&lt;i&gt;&lt;font data-font-src=&quot;https://fontlibrary.org//face/cmu-serif&quot; face=&quot;CMU&quot;&gt;&lt;span style=&quot;white-space: pre;&quot;&gt;&#9;&lt;/span&gt;Deep Learning Model Applicator&lt;/font&gt;&lt;/i&gt;" style="rounded=0;whiteSpace=wrap;html=1;dashed=1;verticalAlign=top;align=left;" parent="1" vertex="1">
                    <mxGeometry x="65.5" y="1140" width="720" height="510" as="geometry"/>
                </mxCell>
                <mxCell id="63" style="edgeStyle=none;rounded=1;html=1;exitX=0.5;exitY=1;exitDx=0;exitDy=0;entryX=0.5;entryY=0;entryDx=0;entryDy=0;fontFamily=CMU;fontSource=https%3A%2F%2Ffontlibrary.org%2F%2Fface%2Fcmu-serif;fontColor=#000000;" parent="1" source="61" target="62" edge="1">
                    <mxGeometry relative="1" as="geometry"/>
                </mxCell>
                <mxCell id="61" value="&lt;font color=&quot;#000000&quot;&gt;Load Deep Learning Model&lt;/font&gt;" style="rounded=1;whiteSpace=wrap;html=1;fontColor=#FF3333;fontFamily=CMU;fontSource=https%3A%2F%2Ffontlibrary.org%2F%2Fface%2Fcmu-serif;" parent="1" vertex="1">
                    <mxGeometry x="345" y="1180" width="160" height="60" as="geometry"/>
                </mxCell>
                <mxCell id="65" value="&lt;i&gt;True&lt;/i&gt;" style="edgeStyle=none;rounded=1;html=1;exitX=0;exitY=0.5;exitDx=0;exitDy=0;entryX=1;entryY=0.5;entryDx=0;entryDy=0;fontFamily=CMU;fontSource=https%3A%2F%2Ffontlibrary.org%2F%2Fface%2Fcmu-serif;fontColor=#000000;" parent="1" source="62" target="64" edge="1">
                    <mxGeometry relative="1" as="geometry"/>
                </mxCell>
                <mxCell id="68" value="&lt;i&gt;False&lt;/i&gt;" style="edgeStyle=none;rounded=1;html=1;exitX=1;exitY=0.5;exitDx=0;exitDy=0;entryX=0;entryY=0.5;entryDx=0;entryDy=0;fontFamily=CMU;fontSource=https%3A%2F%2Ffontlibrary.org%2F%2Fface%2Fcmu-serif;fontColor=#000000;" parent="1" source="62" target="67" edge="1">
                    <mxGeometry x="-0.0356" relative="1" as="geometry">
                        <Array as="points">
                            <mxPoint x="530" y="1320"/>
                            <mxPoint x="530" y="1270"/>
                        </Array>
                        <mxPoint as="offset"/>
                    </mxGeometry>
                </mxCell>
                <mxCell id="72" value="&lt;i&gt;True&lt;/i&gt;" style="edgeStyle=none;rounded=1;html=1;exitX=0.5;exitY=1;exitDx=0;exitDy=0;fontFamily=CMU;fontSource=https%3A%2F%2Ffontlibrary.org%2F%2Fface%2Fcmu-serif;fontColor=#000000;" parent="1" source="62" target="71" edge="1">
                    <mxGeometry relative="1" as="geometry"/>
                </mxCell>
                <mxCell id="62" value="Model Loaded&lt;br&gt;Successfully?" style="rhombus;whiteSpace=wrap;html=1;fontFamily=CMU;fontSource=https%3A%2F%2Ffontlibrary.org%2F%2Fface%2Fcmu-serif;fontColor=#000000;" parent="1" vertex="1">
                    <mxGeometry x="365.5" y="1260" width="120" height="120" as="geometry"/>
                </mxCell>
                <mxCell id="64" value="&lt;font color=&quot;#000000&quot;&gt;Log &amp;amp; Alert &lt;br&gt;Successful Message&lt;/font&gt;" style="rounded=1;whiteSpace=wrap;html=1;fontColor=#FF3333;fontFamily=CMU;fontSource=https%3A%2F%2Ffontlibrary.org%2F%2Fface%2Fcmu-serif;" parent="1" vertex="1">
                    <mxGeometry x="110" y="1290" width="160" height="60" as="geometry"/>
                </mxCell>
                <mxCell id="66" value="&lt;i&gt;True&lt;/i&gt;" style="edgeStyle=none;rounded=1;html=1;exitX=0.5;exitY=1;exitDx=0;exitDy=0;fontFamily=CMU;fontSource=https%3A%2F%2Ffontlibrary.org%2F%2Fface%2Fcmu-serif;fontColor=#000000;" parent="1" source="40" target="61" edge="1">
                    <mxGeometry x="-0.125" relative="1" as="geometry">
                        <mxPoint as="offset"/>
                    </mxGeometry>
                </mxCell>
                <mxCell id="70" style="edgeStyle=none;rounded=1;html=1;exitX=0.5;exitY=1;exitDx=0;exitDy=0;fontFamily=CMU;fontSource=https%3A%2F%2Ffontlibrary.org%2F%2Fface%2Fcmu-serif;fontColor=#000000;" parent="1" source="67" target="69" edge="1">
                    <mxGeometry relative="1" as="geometry"/>
                </mxCell>
                <mxCell id="67" value="&lt;font color=&quot;#000000&quot;&gt;Log &amp;amp; Alert &lt;br&gt;Successful Message&lt;/font&gt;" style="rounded=1;whiteSpace=wrap;html=1;fontColor=#FF3333;fontFamily=CMU;fontSource=https%3A%2F%2Ffontlibrary.org%2F%2Fface%2Fcmu-serif;" parent="1" vertex="1">
                    <mxGeometry x="590" y="1240" width="160" height="60" as="geometry"/>
                </mxCell>
                <mxCell id="69" value="&lt;font color=&quot;#000000&quot;&gt;EXIT : 1&lt;/font&gt;" style="rounded=1;whiteSpace=wrap;html=1;fontFamily=CMU;fontSource=https%3A%2F%2Ffontlibrary.org%2F%2Fface%2Fcmu-serif;fillColor=#f8cecc;strokeColor=#b85450;" parent="1" vertex="1">
                    <mxGeometry x="630" y="1340" width="80" height="30" as="geometry"/>
                </mxCell>
                <mxCell id="75" style="edgeStyle=none;rounded=1;html=1;exitX=0.5;exitY=1;exitDx=0;exitDy=0;fontFamily=CMU;fontSource=https%3A%2F%2Ffontlibrary.org%2F%2Fface%2Fcmu-serif;fontColor=#000000;" parent="1" source="71" target="74" edge="1">
                    <mxGeometry relative="1" as="geometry"/>
                </mxCell>
                <mxCell id="71" value="&lt;font color=&quot;#000000&quot;&gt;Apply Deep Learning Model&lt;br&gt;to Collected Market Data&lt;br&gt;&lt;/font&gt;" style="rounded=1;whiteSpace=wrap;html=1;fontColor=#FF3333;fontFamily=CMU;fontSource=https%3A%2F%2Ffontlibrary.org%2F%2Fface%2Fcmu-serif;" parent="1" vertex="1">
                    <mxGeometry x="348" y="1420" width="160" height="60" as="geometry"/>
                </mxCell>
                <mxCell id="77" value="&lt;i&gt;True&lt;/i&gt;" style="edgeStyle=none;rounded=1;html=1;exitX=0;exitY=0.5;exitDx=0;exitDy=0;fontFamily=CMU;fontSource=https%3A%2F%2Ffontlibrary.org%2F%2Fface%2Fcmu-serif;fontColor=#000000;" parent="1" source="74" target="76" edge="1">
                    <mxGeometry relative="1" as="geometry"/>
                </mxCell>
                <mxCell id="81" value="&lt;i&gt;False&lt;/i&gt;" style="edgeStyle=none;rounded=1;html=1;exitX=1;exitY=0.5;exitDx=0;exitDy=0;entryX=0;entryY=0.5;entryDx=0;entryDy=0;fontFamily=CMU;fontSource=https%3A%2F%2Ffontlibrary.org%2F%2Fface%2Fcmu-serif;fontColor=#000000;" parent="1" source="74" target="78" edge="1">
                    <mxGeometry relative="1" as="geometry">
                        <Array as="points">
                            <mxPoint x="530" y="1570"/>
                            <mxPoint x="530" y="1480"/>
                        </Array>
                    </mxGeometry>
                </mxCell>
                <mxCell id="74" value="Application&lt;br&gt;Successful?" style="rhombus;whiteSpace=wrap;html=1;fontFamily=CMU;fontSource=https%3A%2F%2Ffontlibrary.org%2F%2Fface%2Fcmu-serif;fontColor=#000000;" parent="1" vertex="1">
                    <mxGeometry x="368" y="1510" width="120" height="120" as="geometry"/>
                </mxCell>
                <mxCell id="IA3TWsm3JpiUhUoWFPd_-118" value="" style="edgeStyle=none;html=1;" edge="1" parent="1" source="76" target="82">
                    <mxGeometry relative="1" as="geometry"/>
                </mxCell>
                <mxCell id="76" value="&lt;font color=&quot;#000000&quot;&gt;Log &amp;amp; Alert &lt;br&gt;Successful Message&lt;/font&gt;" style="rounded=1;whiteSpace=wrap;html=1;fontColor=#FF3333;fontFamily=CMU;fontSource=https%3A%2F%2Ffontlibrary.org%2F%2Fface%2Fcmu-serif;" parent="1" vertex="1">
                    <mxGeometry x="110" y="1540" width="160" height="60" as="geometry"/>
                </mxCell>
                <mxCell id="80" style="edgeStyle=none;rounded=1;html=1;exitX=0.5;exitY=1;exitDx=0;exitDy=0;entryX=0.5;entryY=0;entryDx=0;entryDy=0;fontFamily=CMU;fontSource=https%3A%2F%2Ffontlibrary.org%2F%2Fface%2Fcmu-serif;fontColor=#000000;" parent="1" source="78" target="79" edge="1">
                    <mxGeometry relative="1" as="geometry"/>
                </mxCell>
                <mxCell id="78" value="&lt;font color=&quot;#000000&quot;&gt;Log &amp;amp; Alert &lt;br&gt;Successful Message&lt;/font&gt;" style="rounded=1;whiteSpace=wrap;html=1;fontColor=#FF3333;fontFamily=CMU;fontSource=https%3A%2F%2Ffontlibrary.org%2F%2Fface%2Fcmu-serif;" parent="1" vertex="1">
                    <mxGeometry x="590" y="1450" width="160" height="60" as="geometry"/>
                </mxCell>
                <mxCell id="79" value="&lt;font color=&quot;#000000&quot;&gt;EXIT : 1&lt;/font&gt;" style="rounded=1;whiteSpace=wrap;html=1;fontFamily=CMU;fontSource=https%3A%2F%2Ffontlibrary.org%2F%2Fface%2Fcmu-serif;fillColor=#f8cecc;strokeColor=#b85450;" parent="1" vertex="1">
                    <mxGeometry x="630" y="1550" width="80" height="30" as="geometry"/>
                </mxCell>
                <mxCell id="82" value="&lt;i&gt;&lt;font data-font-src=&quot;https://fontlibrary.org//face/cmu-serif&quot; face=&quot;CMU&quot;&gt;&lt;span style=&quot;white-space: pre;&quot;&gt;&#9;&lt;/span&gt;Trading Algorithm Applicator&lt;/font&gt;&lt;/i&gt;" style="rounded=0;whiteSpace=wrap;html=1;dashed=1;verticalAlign=top;align=left;" parent="1" vertex="1">
                    <mxGeometry x="65.5" y="1680" width="720" height="260" as="geometry"/>
                </mxCell>
                <mxCell id="86" style="edgeStyle=none;rounded=1;html=1;exitX=0.5;exitY=1;exitDx=0;exitDy=0;entryX=0.5;entryY=0;entryDx=0;entryDy=0;fontFamily=CMU;fontSource=https%3A%2F%2Ffontlibrary.org%2F%2Fface%2Fcmu-serif;fontColor=#000000;" parent="1" source="83" target="84" edge="1">
                    <mxGeometry relative="1" as="geometry"/>
                </mxCell>
                <mxCell id="83" value="&lt;font color=&quot;#000000&quot;&gt;Apply Trading Algorithm&lt;/font&gt;" style="rounded=1;whiteSpace=wrap;html=1;fontColor=#FF3333;fontFamily=CMU;fontSource=https%3A%2F%2Ffontlibrary.org%2F%2Fface%2Fcmu-serif;" parent="1" vertex="1">
                    <mxGeometry x="348" y="1710" width="160" height="60" as="geometry"/>
                </mxCell>
                <mxCell id="84" value="Application&lt;br&gt;Successful?" style="rhombus;whiteSpace=wrap;html=1;fontFamily=CMU;fontSource=https%3A%2F%2Ffontlibrary.org%2F%2Fface%2Fcmu-serif;fontColor=#000000;" parent="1" vertex="1">
                    <mxGeometry x="368" y="1800" width="120" height="120" as="geometry"/>
                </mxCell>
                <mxCell id="85" value="&lt;i&gt;True&lt;/i&gt;" style="edgeStyle=none;rounded=1;html=1;exitX=0.5;exitY=1;exitDx=0;exitDy=0;fontFamily=CMU;fontSource=https%3A%2F%2Ffontlibrary.org%2F%2Fface%2Fcmu-serif;fontColor=#000000;" parent="1" source="74" target="83" edge="1">
                    <mxGeometry x="-0.1429" relative="1" as="geometry">
                        <mxPoint as="offset"/>
                    </mxGeometry>
                </mxCell>
                <mxCell id="87" value="&lt;i&gt;False&lt;/i&gt;" style="edgeStyle=none;rounded=1;html=1;entryX=0;entryY=0.5;entryDx=0;entryDy=0;fontFamily=CMU;fontSource=https%3A%2F%2Ffontlibrary.org%2F%2Fface%2Fcmu-serif;fontColor=#000000;" parent="1" target="89" edge="1">
                    <mxGeometry relative="1" as="geometry">
                        <mxPoint x="488" y="1860" as="sourcePoint"/>
                        <Array as="points">
                            <mxPoint x="530" y="1860"/>
                            <mxPoint x="530" y="1770"/>
                        </Array>
                    </mxGeometry>
                </mxCell>
                <mxCell id="88" style="edgeStyle=none;rounded=1;html=1;exitX=0.5;exitY=1;exitDx=0;exitDy=0;entryX=0.5;entryY=0;entryDx=0;entryDy=0;fontFamily=CMU;fontSource=https%3A%2F%2Ffontlibrary.org%2F%2Fface%2Fcmu-serif;fontColor=#000000;" parent="1" source="89" target="90" edge="1">
                    <mxGeometry relative="1" as="geometry"/>
                </mxCell>
                <mxCell id="89" value="&lt;font color=&quot;#000000&quot;&gt;Log &amp;amp; Alert &lt;br&gt;Successful Message&lt;/font&gt;" style="rounded=1;whiteSpace=wrap;html=1;fontColor=#FF3333;fontFamily=CMU;fontSource=https%3A%2F%2Ffontlibrary.org%2F%2Fface%2Fcmu-serif;" parent="1" vertex="1">
                    <mxGeometry x="590" y="1740" width="160" height="60" as="geometry"/>
                </mxCell>
                <mxCell id="90" value="&lt;font color=&quot;#000000&quot;&gt;EXIT : 1&lt;/font&gt;" style="rounded=1;whiteSpace=wrap;html=1;fontFamily=CMU;fontSource=https%3A%2F%2Ffontlibrary.org%2F%2Fface%2Fcmu-serif;fillColor=#f8cecc;strokeColor=#b85450;" parent="1" vertex="1">
                    <mxGeometry x="630" y="1840" width="80" height="30" as="geometry"/>
                </mxCell>
                <mxCell id="91" value="&lt;i&gt;True&lt;/i&gt;" style="edgeStyle=none;rounded=1;html=1;exitX=0;exitY=0.5;exitDx=0;exitDy=0;fontFamily=CMU;fontSource=https%3A%2F%2Ffontlibrary.org%2F%2Fface%2Fcmu-serif;fontColor=#000000;" parent="1" source="84" target="92" edge="1">
                    <mxGeometry relative="1" as="geometry">
                        <mxPoint x="365.5" y="1860" as="sourcePoint"/>
                    </mxGeometry>
                </mxCell>
                <mxCell id="92" value="&lt;font color=&quot;#000000&quot;&gt;Log &amp;amp; Alert &lt;br&gt;Successful Message&lt;/font&gt;" style="rounded=1;whiteSpace=wrap;html=1;fontColor=#FF3333;fontFamily=CMU;fontSource=https%3A%2F%2Ffontlibrary.org%2F%2Fface%2Fcmu-serif;" parent="1" vertex="1">
                    <mxGeometry x="107.5" y="1830" width="160" height="60" as="geometry"/>
                </mxCell>
                <mxCell id="95" value="&lt;i&gt;&lt;font data-font-src=&quot;https://fontlibrary.org//face/cmu-serif&quot; face=&quot;CMU&quot;&gt;&lt;span style=&quot;white-space: pre;&quot;&gt;&#9;&lt;/span&gt;Database Updater&lt;/font&gt;&lt;/i&gt;" style="rounded=0;whiteSpace=wrap;html=1;dashed=1;verticalAlign=top;align=left;" parent="1" vertex="1">
                    <mxGeometry x="65.5" y="1960" width="720" height="500" as="geometry"/>
                </mxCell>
                <mxCell id="106" style="edgeStyle=none;rounded=1;html=1;exitX=0.5;exitY=1;exitDx=0;exitDy=0;entryX=0.5;entryY=0;entryDx=0;entryDy=0;fontFamily=CMU;fontSource=https%3A%2F%2Ffontlibrary.org%2F%2Fface%2Fcmu-serif;fontColor=#000000;" parent="1" source="96" target="99" edge="1">
                    <mxGeometry relative="1" as="geometry"/>
                </mxCell>
                <mxCell id="96" value="&lt;font color=&quot;#000000&quot;&gt;Delete Old Data from Database&lt;/font&gt;" style="rounded=1;whiteSpace=wrap;html=1;fontColor=#FF3333;fontFamily=CMU;fontSource=https%3A%2F%2Ffontlibrary.org%2F%2Fface%2Fcmu-serif;" parent="1" vertex="1">
                    <mxGeometry x="348" y="2000" width="160" height="60" as="geometry"/>
                </mxCell>
                <mxCell id="117" value="True" style="edgeStyle=none;rounded=1;html=1;exitX=0.5;exitY=1;exitDx=0;exitDy=0;fontFamily=CMU;fontSource=https%3A%2F%2Ffontlibrary.org%2F%2Fface%2Fcmu-serif;fontColor=#000000;" parent="1" source="99" target="109" edge="1">
                    <mxGeometry relative="1" as="geometry"/>
                </mxCell>
                <mxCell id="99" value="Deletion&lt;br&gt;Successful?" style="rhombus;whiteSpace=wrap;html=1;fontFamily=CMU;fontSource=https%3A%2F%2Ffontlibrary.org%2F%2Fface%2Fcmu-serif;fontColor=#000000;" parent="1" vertex="1">
                    <mxGeometry x="368" y="2090" width="120" height="120" as="geometry"/>
                </mxCell>
                <mxCell id="100" value="&lt;i&gt;False&lt;/i&gt;" style="edgeStyle=none;rounded=1;html=1;entryX=0;entryY=0.5;entryDx=0;entryDy=0;fontFamily=CMU;fontSource=https%3A%2F%2Ffontlibrary.org%2F%2Fface%2Fcmu-serif;fontColor=#000000;" parent="1" target="102" edge="1">
                    <mxGeometry relative="1" as="geometry">
                        <mxPoint x="487.25" y="2150" as="sourcePoint"/>
                        <Array as="points">
                            <mxPoint x="529.25" y="2150"/>
                            <mxPoint x="529.25" y="2060"/>
                        </Array>
                    </mxGeometry>
                </mxCell>
                <mxCell id="101" style="edgeStyle=none;rounded=1;html=1;exitX=0.5;exitY=1;exitDx=0;exitDy=0;entryX=0.5;entryY=0;entryDx=0;entryDy=0;fontFamily=CMU;fontSource=https%3A%2F%2Ffontlibrary.org%2F%2Fface%2Fcmu-serif;fontColor=#000000;" parent="1" source="102" target="103" edge="1">
                    <mxGeometry relative="1" as="geometry"/>
                </mxCell>
                <mxCell id="102" value="&lt;font color=&quot;#000000&quot;&gt;Log &amp;amp; Alert &lt;br&gt;Successful Message&lt;/font&gt;" style="rounded=1;whiteSpace=wrap;html=1;fontColor=#FF3333;fontFamily=CMU;fontSource=https%3A%2F%2Ffontlibrary.org%2F%2Fface%2Fcmu-serif;" parent="1" vertex="1">
                    <mxGeometry x="589.25" y="2030" width="160" height="60" as="geometry"/>
                </mxCell>
                <mxCell id="103" value="&lt;font color=&quot;#000000&quot;&gt;EXIT : 1&lt;/font&gt;" style="rounded=1;whiteSpace=wrap;html=1;fontFamily=CMU;fontSource=https%3A%2F%2Ffontlibrary.org%2F%2Fface%2Fcmu-serif;fillColor=#f8cecc;strokeColor=#b85450;" parent="1" vertex="1">
                    <mxGeometry x="629.25" y="2130" width="80" height="30" as="geometry"/>
                </mxCell>
                <mxCell id="104" value="&lt;i&gt;True&lt;/i&gt;" style="edgeStyle=none;rounded=1;html=1;exitX=0;exitY=0.5;exitDx=0;exitDy=0;fontFamily=CMU;fontSource=https%3A%2F%2Ffontlibrary.org%2F%2Fface%2Fcmu-serif;fontColor=#000000;" parent="1" source="99" target="105" edge="1">
                    <mxGeometry relative="1" as="geometry">
                        <mxPoint x="364.75" y="2150" as="sourcePoint"/>
                    </mxGeometry>
                </mxCell>
                <mxCell id="105" value="&lt;font color=&quot;#000000&quot;&gt;Log &amp;amp; Alert &lt;br&gt;Successful Message&lt;/font&gt;" style="rounded=1;whiteSpace=wrap;html=1;fontColor=#FF3333;fontFamily=CMU;fontSource=https%3A%2F%2Ffontlibrary.org%2F%2Fface%2Fcmu-serif;" parent="1" vertex="1">
                    <mxGeometry x="106.75" y="2120" width="160" height="60" as="geometry"/>
                </mxCell>
                <mxCell id="107" value="&lt;i&gt;True&lt;/i&gt;" style="edgeStyle=none;rounded=1;html=1;exitX=0.5;exitY=1;exitDx=0;exitDy=0;fontFamily=CMU;fontSource=https%3A%2F%2Ffontlibrary.org%2F%2Fface%2Fcmu-serif;fontColor=#000000;" parent="1" source="84" target="96" edge="1">
                    <mxGeometry x="-0.25" relative="1" as="geometry">
                        <mxPoint as="offset"/>
                    </mxGeometry>
                </mxCell>
                <mxCell id="108" style="edgeStyle=none;rounded=1;html=1;exitX=0.5;exitY=1;exitDx=0;exitDy=0;entryX=0.5;entryY=0;entryDx=0;entryDy=0;fontFamily=CMU;fontSource=https%3A%2F%2Ffontlibrary.org%2F%2Fface%2Fcmu-serif;fontColor=#000000;" parent="1" source="109" target="110" edge="1">
                    <mxGeometry relative="1" as="geometry"/>
                </mxCell>
                <mxCell id="109" value="&lt;font color=&quot;#000000&quot;&gt;Update Database with New Data&lt;/font&gt;" style="rounded=1;whiteSpace=wrap;html=1;fontColor=#FF3333;fontFamily=CMU;fontSource=https%3A%2F%2Ffontlibrary.org%2F%2Fface%2Fcmu-serif;" parent="1" vertex="1">
                    <mxGeometry x="348" y="2250" width="160" height="60" as="geometry"/>
                </mxCell>
                <mxCell id="110" value="Update&lt;br&gt;Successful?" style="rhombus;whiteSpace=wrap;html=1;fontFamily=CMU;fontSource=https%3A%2F%2Ffontlibrary.org%2F%2Fface%2Fcmu-serif;fontColor=#000000;" parent="1" vertex="1">
                    <mxGeometry x="368" y="2330" width="120" height="120" as="geometry"/>
                </mxCell>
                <mxCell id="111" value="&lt;i&gt;False&lt;/i&gt;" style="edgeStyle=none;rounded=1;html=1;entryX=0;entryY=0.5;entryDx=0;entryDy=0;fontFamily=CMU;fontSource=https%3A%2F%2Ffontlibrary.org%2F%2Fface%2Fcmu-serif;fontColor=#000000;" parent="1" target="113" edge="1">
                    <mxGeometry relative="1" as="geometry">
                        <mxPoint x="487.25" y="2390" as="sourcePoint"/>
                        <Array as="points">
                            <mxPoint x="529.25" y="2390"/>
                            <mxPoint x="529.25" y="2300"/>
                        </Array>
                    </mxGeometry>
                </mxCell>
                <mxCell id="112" style="edgeStyle=none;rounded=1;html=1;exitX=0.5;exitY=1;exitDx=0;exitDy=0;entryX=0.5;entryY=0;entryDx=0;entryDy=0;fontFamily=CMU;fontSource=https%3A%2F%2Ffontlibrary.org%2F%2Fface%2Fcmu-serif;fontColor=#000000;" parent="1" source="113" target="114" edge="1">
                    <mxGeometry relative="1" as="geometry"/>
                </mxCell>
                <mxCell id="113" value="&lt;font color=&quot;#000000&quot;&gt;Log &amp;amp; Alert &lt;br&gt;Successful Message&lt;/font&gt;" style="rounded=1;whiteSpace=wrap;html=1;fontColor=#FF3333;fontFamily=CMU;fontSource=https%3A%2F%2Ffontlibrary.org%2F%2Fface%2Fcmu-serif;" parent="1" vertex="1">
                    <mxGeometry x="589.25" y="2270" width="160" height="60" as="geometry"/>
                </mxCell>
                <mxCell id="114" value="&lt;font color=&quot;#000000&quot;&gt;EXIT : 1&lt;/font&gt;" style="rounded=1;whiteSpace=wrap;html=1;fontFamily=CMU;fontSource=https%3A%2F%2Ffontlibrary.org%2F%2Fface%2Fcmu-serif;fillColor=#f8cecc;strokeColor=#b85450;" parent="1" vertex="1">
                    <mxGeometry x="629.25" y="2370" width="80" height="30" as="geometry"/>
                </mxCell>
                <mxCell id="115" value="&lt;i&gt;True&lt;/i&gt;" style="edgeStyle=none;rounded=1;html=1;exitX=0;exitY=0.5;exitDx=0;exitDy=0;fontFamily=CMU;fontSource=https%3A%2F%2Ffontlibrary.org%2F%2Fface%2Fcmu-serif;fontColor=#000000;" parent="1" source="110" target="116" edge="1">
                    <mxGeometry relative="1" as="geometry">
                        <mxPoint x="364.75" y="2390" as="sourcePoint"/>
                    </mxGeometry>
                </mxCell>
                <mxCell id="116" value="&lt;font color=&quot;#000000&quot;&gt;Log &amp;amp; Alert &lt;br&gt;Successful Message&lt;/font&gt;" style="rounded=1;whiteSpace=wrap;html=1;fontColor=#FF3333;fontFamily=CMU;fontSource=https%3A%2F%2Ffontlibrary.org%2F%2Fface%2Fcmu-serif;" parent="1" vertex="1">
                    <mxGeometry x="106.75" y="2360" width="160" height="60" as="geometry"/>
                </mxCell>
                <mxCell id="118" value="&lt;font data-font-src=&quot;https://fontlibrary.org//face/cmu-serif&quot; face=&quot;CMU&quot;&gt;&lt;b&gt;END&lt;/b&gt;&lt;/font&gt;" style="text;html=1;strokeColor=none;fillColor=none;align=center;verticalAlign=middle;whiteSpace=wrap;rounded=0;fontColor=#00CC00;" parent="1" vertex="1">
                    <mxGeometry x="153" y="2415" width="60" height="30" as="geometry"/>
                </mxCell>
            </root>
        </mxGraphModel>
    </diagram>
</mxfile>